<?xml version="1.0" encoding="UTF-8"?>
<!DOCTYPE svg PUBLIC "-//W3C//DTD SVG 1.1//EN" "http://www.w3.org/Graphics/SVG/1.1/DTD/svg11.dtd">
<svg xmlns="http://www.w3.org/2000/svg" version="1.1" width="256px" height="256px" style="shape-rendering:geometricPrecision; text-rendering:geometricPrecision; image-rendering:optimizeQuality; fill-rule:evenodd; clip-rule:evenodd" xmlns:xlink="http://www.w3.org/1999/xlink">
<g><path style="opacity:1" fill="#537ee4" d="M 23.5,28.5 C 57.8398,28.1668 92.1731,28.5001 126.5,29.5C 127.63,30.6223 128.297,31.9557 128.5,33.5C 127.391,33.5569 126.391,33.8902 125.5,34.5C 125.762,33.0222 125.429,31.6888 124.5,30.5C 92.8333,31.1667 61.1667,31.8333 29.5,32.5C 26.7876,31.0224 25.1209,31.8557 24.5,35C 25.801,41.7095 25.801,48.3762 24.5,55C 25.7932,55.49 27.1266,55.6567 28.5,55.5C 27.8902,56.391 27.5569,57.391 27.5,58.5C 25.7162,58.1075 24.0495,57.4408 22.5,56.5C 22.5,47.5 22.5,38.5 22.5,29.5C 22.5,28.8333 22.8333,28.5 23.5,28.5 Z"/></g>
<g><path style="opacity:1" fill="#507de6" d="M 153.5,28.5 C 178.842,28.1669 204.175,28.5002 229.5,29.5C 230.63,30.6223 231.297,31.9557 231.5,33.5C 229.076,35.2428 226.409,36.5762 223.5,37.5C 223.33,36.1779 223.663,35.0113 224.5,34C 203.833,33.3333 183.167,33.3333 162.5,34C 158.16,36.353 156.493,40.0196 157.5,45C 157.667,47.1667 157.833,49.3333 158,51.5C 159.011,50.6634 160.178,50.33 161.5,50.5C 161.071,53.1473 159.738,55.1473 157.5,56.5C 155.958,57.3007 154.292,57.634 152.5,57.5C 152.5,48.1667 152.5,38.8333 152.5,29.5C 152.5,28.8333 152.833,28.5 153.5,28.5 Z"/></g>
<g><path style="opacity:1" fill="#4d7be7" d="M 125.5,34.5 C 124.232,36.047 122.565,37.047 120.5,37.5C 91.4981,37.3334 62.4981,37.5 33.5,38C 33,38.5 32.5,39 32,39.5C 31.5014,43.1516 31.3347,46.8183 31.5,50.5C 31.047,52.5652 30.047,54.2318 28.5,55.5C 27.1266,55.6567 25.7932,55.49 24.5,55C 25.801,48.3762 25.801,41.7095 24.5,35C 25.1209,31.8557 26.7876,31.0224 29.5,32.5C 61.1667,31.8333 92.8333,31.1667 124.5,30.5C 125.429,31.6888 125.762,33.0222 125.5,34.5 Z"/></g>
<g><path style="opacity:1" fill="#4775e2" d="M 128.5,33.5 C 128.666,40.175 128.5,46.8417 128,53.5C 127.167,55.6667 125.667,57.1667 123.5,58C 91.5017,58.5 59.5017,58.6666 27.5,58.5C 27.5569,57.391 27.8902,56.391 28.5,55.5C 30.047,54.2318 31.047,52.5652 31.5,50.5C 60.8352,50.6666 90.1686,50.5 119.5,50C 120.464,45.9341 120.797,41.7675 120.5,37.5C 122.565,37.047 124.232,36.047 125.5,34.5C 126.391,33.8902 127.391,33.5569 128.5,33.5 Z"/></g>
<g><path style="opacity:1" fill="#466ac5" d="M 23.5,28.5 C 59.331,27.3357 95.331,27.169 131.5,28C 133.464,38.9116 134.131,50.0783 133.5,61.5C 96.5728,62.4933 59.5728,62.8266 22.5,62.5C 22.5,60.5 22.5,58.5 22.5,56.5C 24.0495,57.4408 25.7162,58.1075 27.5,58.5C 59.5017,58.6666 91.5017,58.5 123.5,58C 125.667,57.1667 127.167,55.6667 128,53.5C 128.5,46.8417 128.666,40.175 128.5,33.5C 128.297,31.9557 127.63,30.6223 126.5,29.5C 92.1731,28.5001 57.8398,28.1668 23.5,28.5 Z"/></g>
<g><path style="opacity:1" fill="#4769c0" d="M 153.5,28.5 C 180.833,27.1667 208.167,27.1667 235.5,28.5C 235.5,39.8333 235.5,51.1667 235.5,62.5C 207.833,62.5 180.167,62.5 152.5,62.5C 151.167,51.5 151.167,40.5 152.5,29.5C 152.5,38.8333 152.5,48.1667 152.5,57.5C 154.292,57.634 155.958,57.3007 157.5,56.5C 168.647,57.8323 180.147,58.499 192,58.5C 203.5,58.3333 215,58.1667 226.5,58C 228.667,57.1667 230.167,55.6667 231,53.5C 231.5,46.8417 231.666,40.175 231.5,33.5C 231.297,31.9557 230.63,30.6223 229.5,29.5C 204.175,28.5002 178.842,28.1669 153.5,28.5 Z"/></g>
<g><path style="opacity:1" fill="#4775e2" d="M 231.5,33.5 C 231.666,40.175 231.5,46.8417 231,53.5C 230.167,55.6667 228.667,57.1667 226.5,58C 215,58.1667 203.5,58.3333 192,58.5C 180.147,58.499 168.647,57.8323 157.5,56.5C 159.738,55.1473 161.071,53.1473 161.5,50.5C 181.836,50.6666 202.169,50.5 222.5,50C 223.464,45.9341 223.797,41.7675 223.5,37.5C 226.409,36.5762 229.076,35.2428 231.5,33.5 Z"/></g>
<g><path style="opacity:1" fill="#4978e8" d="M 120.5,37.5 C 120.797,41.7675 120.464,45.9341 119.5,50C 90.1686,50.5 60.8352,50.6666 31.5,50.5C 31.3347,46.8183 31.5014,43.1516 32,39.5C 32.5,39 33,38.5 33.5,38C 62.4981,37.5 91.4981,37.3334 120.5,37.5 Z"/></g>
<g><path style="opacity:1" fill="#4978e8" d="M 223.5,37.5 C 223.797,41.7675 223.464,45.9341 222.5,50C 202.169,50.5 181.836,50.6666 161.5,50.5C 160.178,50.33 159.011,50.6634 158,51.5C 157.833,49.3333 157.667,47.1667 157.5,45C 156.493,40.0196 158.16,36.353 162.5,34C 183.167,33.3333 203.833,33.3333 224.5,34C 223.663,35.0113 223.33,36.1779 223.5,37.5 Z"/></g>
<g><path style="opacity:0.996" fill="#3555a3" d="M 133.5,61.5 C 133.5,63.5 133.5,65.5 133.5,67.5C 121.5,67.5 109.5,67.5 97.5,67.5C 97.5,66.1667 97.5,64.8333 97.5,63.5C 84.5,63.5 71.5,63.5 58.5,63.5C 48.4944,63.3335 38.4944,63.5002 28.5,64C 38.2558,64.0906 47.9224,64.9239 57.5,66.5C 57.5,67.8333 57.5,69.1667 57.5,70.5C 48.4197,67.7755 39.0864,66.7755 29.5,67.5C 27.139,67.3259 24.8056,66.9926 22.5,66.5C 22.5,65.1667 22.5,63.8333 22.5,62.5C 59.5728,62.8266 96.5728,62.4933 133.5,61.5 Z"/></g>
<g><path style="opacity:1" fill="#294280" d="M 58.5,63.5 C 58.5,79.8333 58.5,96.1667 58.5,112.5C 58.1667,112.5 57.8333,112.5 57.5,112.5C 57.5,111.5 57.5,110.5 57.5,109.5C 57.5,104.167 57.5,98.8333 57.5,93.5C 57.5,90.5 57.5,87.5 57.5,84.5C 57.5,79.8333 57.5,75.1667 57.5,70.5C 57.5,69.1667 57.5,67.8333 57.5,66.5C 47.9224,64.9239 38.2558,64.0906 28.5,64C 38.4944,63.5002 48.4944,63.3335 58.5,63.5 Z"/></g>
<g><path style="opacity:1" fill="#3a5596" d="M 235.5,28.5 C 236.499,68.9966 236.832,109.663 236.5,150.5C 236.167,150.5 235.833,150.5 235.5,150.5C 235.5,148.833 235.5,147.167 235.5,145.5C 235.5,138.833 235.5,132.167 235.5,125.5C 235.5,119.833 235.5,114.167 235.5,108.5C 235.5,94.1667 235.5,79.8333 235.5,65.5C 224.495,65.3335 213.495,65.5002 202.5,66C 201.027,66.7096 200.36,67.8762 200.5,69.5C 200.5,80.1667 200.5,90.8333 200.5,101.5C 200.5,109.5 200.5,117.5 200.5,125.5C 200.5,137.5 200.5,149.5 200.5,161.5C 200.5,172.833 200.5,184.167 200.5,195.5C 200.5,204.833 200.5,214.167 200.5,223.5C 200.5,225.5 200.5,227.5 200.5,229.5C 199.501,174.336 199.168,119.003 199.5,63.5C 183.658,63.8296 167.991,63.4963 152.5,62.5C 180.167,62.5 207.833,62.5 235.5,62.5C 235.5,51.1667 235.5,39.8333 235.5,28.5 Z"/></g>
<g><path style="opacity:1" fill="#406acd" d="M 22.5,66.5 C 24.8056,66.9926 27.139,67.3259 29.5,67.5C 29.9175,68.2216 30.5842,68.7216 31.5,69C 37.5,69.3333 43.5,69.6667 49.5,70C 52.0684,71.1271 53.4018,73.1271 53.5,76C 52.5434,82.0363 50.8768,87.8697 48.5,93.5C 44.8623,96.7722 40.6956,97.4389 36,95.5C 29.6926,94.6286 26.526,97.2953 26.5,103.5C 25.0379,104.471 23.7046,104.138 22.5,102.5C 22.5,90.5 22.5,78.5 22.5,66.5 Z"/></g>
<g><path style="opacity:1" fill="#436fd6" d="M 200.5,69.5 C 201.5,69.5 202.5,69.5 203.5,69.5C 211.962,69.4773 220.629,69.6439 229.5,70C 231.516,71.0282 232.516,72.6948 232.5,75C 231.296,79.4304 230.462,83.9304 230,88.5C 229.252,93.6755 226.752,97.6755 222.5,100.5C 216.516,98.4917 210.516,97.4917 204.5,97.5C 204.416,100.327 203.75,102.994 202.5,105.5C 201.833,104.167 201.167,102.833 200.5,101.5C 200.5,90.8333 200.5,80.1667 200.5,69.5 Z"/></g>
<g><path style="opacity:1" fill="#3860bf" d="M 29.5,67.5 C 39.0864,66.7755 48.4197,67.7755 57.5,70.5C 57.5,75.1667 57.5,79.8333 57.5,84.5C 54.0963,92.1828 50.763,100.016 47.5,108C 42.9,109.766 38.2333,109.933 33.5,108.5C 31.5,109.167 29.5,109.833 27.5,110.5C 26.5258,108.257 26.1924,105.924 26.5,103.5C 26.526,97.2953 29.6926,94.6286 36,95.5C 40.6956,97.4389 44.8623,96.7722 48.5,93.5C 50.8768,87.8697 52.5434,82.0363 53.5,76C 53.4018,73.1271 52.0684,71.1271 49.5,70C 43.5,69.6667 37.5,69.3333 31.5,69C 30.5842,68.7216 29.9175,68.2216 29.5,67.5 Z"/></g>
<g><path style="opacity:1" fill="#3961bf" d="M 97.5,67.5 C 109.5,67.5 121.5,67.5 133.5,67.5C 133.5,75.5 133.5,83.5 133.5,91.5C 132.778,91.0825 132.278,90.4158 132,89.5C 129.918,99.8386 126.918,109.839 123,119.5C 121.261,120.894 119.261,121.561 117,121.5C 112.828,120.235 108.661,120.235 104.5,121.5C 104.799,119.396 104.466,117.396 103.5,115.5C 101.554,117.087 100.054,116.754 99,114.5C 98.8276,108.319 98.3276,102.319 97.5,96.5C 97.5,86.8333 97.5,77.1667 97.5,67.5 Z"/></g>
<g><path style="opacity:1" fill="#3e68cc" d="M 105.5,70.5 C 112.655,69.3448 119.988,69.1782 127.5,70C 128.704,71.3528 129.371,73.0194 129.5,75C 128.738,83.6609 126.405,91.8275 122.5,99.5C 119.098,101.646 115.432,101.979 111.5,100.5C 108.113,100.964 104.78,101.631 101.5,102.5C 101.508,99.4552 101.841,96.4552 102.5,93.5C 102.887,90.826 103.887,88.4927 105.5,86.5C 106.086,86.7093 106.586,87.0426 107,87.5C 111.414,86.6971 115.914,86.1971 120.5,86C 124.99,82.2193 126.657,77.386 125.5,71.5C 118.877,70.6204 112.211,70.287 105.5,70.5 Z"/></g>
<g><path style="opacity:1" fill="#4470d8" d="M 105.5,70.5 C 112.211,70.287 118.877,70.6204 125.5,71.5C 126.657,77.386 124.99,82.2193 120.5,86C 115.914,86.1971 111.414,86.6971 107,87.5C 106.586,87.0426 106.086,86.7093 105.5,86.5C 103.887,88.4927 102.887,90.826 102.5,93.5C 101.178,93.67 100.011,93.3366 99,92.5C 98.5003,84.8406 98.3336,77.1739 98.5,69.5C 100.806,69.9926 103.139,70.3259 105.5,70.5 Z"/></g>
<g><path style="opacity:1" fill="#3c65c7" d="M 202.5,105.5 C 203.75,102.994 204.416,100.327 204.5,97.5C 210.516,97.4917 216.516,98.4917 222.5,100.5C 226.752,97.6755 229.252,93.6755 230,88.5C 230.462,83.9304 231.296,79.4304 232.5,75C 232.516,72.6948 231.516,71.0282 229.5,70C 220.629,69.6439 211.962,69.4773 203.5,69.5C 212.422,68.3631 221.422,68.1965 230.5,69C 233.313,69.6945 234.647,71.5278 234.5,74.5C 232.387,84.8994 230.221,95.2327 228,105.5C 228.862,103.913 229.529,102.246 230,100.5C 230.167,101.167 230.333,101.833 230.5,102.5C 229.571,106.878 227.904,110.878 225.5,114.5C 224.452,115.383 223.285,116.05 222,116.5C 216.58,114.426 211.08,113.593 205.5,114C 205.421,111.695 205.254,109.195 205,106.5C 204.667,106.833 204.333,107.167 204,107.5C 203.722,106.584 203.222,105.918 202.5,105.5 Z"/></g>
<g><path style="opacity:1" fill="#3359b3" d="M 57.5,84.5 C 57.5,87.5 57.5,90.5 57.5,93.5C 55.0022,102.797 52.1689,112.131 49,121.5C 47.53,123.152 45.6967,124.152 43.5,124.5C 38.5041,123.314 33.5041,123.314 28.5,124.5C 27.8333,127.167 27.1667,129.833 26.5,132.5C 25.7784,132.918 25.2784,133.584 25,134.5C 24.3292,133.748 23.4959,133.414 22.5,133.5C 22.5,123.167 22.5,112.833 22.5,102.5C 23.7046,104.138 25.0379,104.471 26.5,103.5C 26.1924,105.924 26.5258,108.257 27.5,110.5C 29.5,109.833 31.5,109.167 33.5,108.5C 38.2333,109.933 42.9,109.766 47.5,108C 50.763,100.016 54.0963,92.1828 57.5,84.5 Z"/></g>
<g><path style="opacity:1" fill="#3056af" d="M 133.5,91.5 C 133.5,92.5 133.5,93.5 133.5,94.5C 132.28,98.0396 131.114,101.706 130,105.5C 129.913,114.801 127.913,123.801 124,132.5C 123.097,133.701 121.931,134.535 120.5,135C 115.018,135.066 109.684,135.899 104.5,137.5C 104.193,136.113 104.193,134.446 104.5,132.5C 104.611,130.352 103.944,130.019 102.5,131.5C 101.744,127.944 102.411,124.611 104.5,121.5C 108.661,120.235 112.828,120.235 117,121.5C 119.261,121.561 121.261,120.894 123,119.5C 126.918,109.839 129.918,99.8386 132,89.5C 132.278,90.4158 132.778,91.0825 133.5,91.5 Z"/></g>
<g><path style="opacity:1" fill="#294b9a" d="M 57.5,109.5 C 57.5,110.5 57.5,111.5 57.5,112.5C 57.5,117.167 57.5,121.833 57.5,126.5C 55.3715,131.048 53.7048,135.881 52.5,141C 50.4905,142.823 49.1572,144.99 48.5,147.5C 43.503,146.334 38.503,146.334 33.5,147.5C 29.294,153.846 26.9607,160.846 26.5,168.5C 26.7678,170.099 26.4345,171.432 25.5,172.5C 25.1788,170.952 24.1788,170.285 22.5,170.5C 22.5,158.167 22.5,145.833 22.5,133.5C 23.4959,133.414 24.3292,133.748 25,134.5C 25.2784,133.584 25.7784,132.918 26.5,132.5C 26.7045,134.785 27.0378,137.118 27.5,139.5C 29.8284,138.783 31.9951,137.783 34,136.5C 42.8674,139.912 48.8674,137.245 52,128.5C 53.281,121.873 55.1144,115.54 57.5,109.5 Z"/></g>
<g><path style="opacity:1" fill="#2d51a7" d="M 57.5,93.5 C 57.5,98.8333 57.5,104.167 57.5,109.5C 55.1144,115.54 53.281,121.873 52,128.5C 48.8674,137.245 42.8674,139.912 34,136.5C 31.9951,137.783 29.8284,138.783 27.5,139.5C 27.0378,137.118 26.7045,134.785 26.5,132.5C 27.1667,129.833 27.8333,127.167 28.5,124.5C 33.5041,123.314 38.5041,123.314 43.5,124.5C 45.6967,124.152 47.53,123.152 49,121.5C 52.1689,112.131 55.0022,102.797 57.5,93.5 Z"/></g>
<g><path style="opacity:1" fill="#355bb7" d="M 235.5,108.5 C 233.563,117.621 231.063,126.621 228,135.5C 227,137.833 225.333,139.5 223,140.5C 219.43,139.251 215.764,138.251 212,137.5C 208.743,137.201 205.576,137.701 202.5,139C 203.848,137.426 204.514,135.593 204.5,133.5C 203.2,130.837 201.866,128.171 200.5,125.5C 200.5,117.5 200.5,109.5 200.5,101.5C 201.167,102.833 201.833,104.167 202.5,105.5C 203.222,105.918 203.722,106.584 204,107.5C 204.333,107.167 204.667,106.833 205,106.5C 205.254,109.195 205.421,111.695 205.5,114C 211.08,113.593 216.58,114.426 222,116.5C 223.285,116.05 224.452,115.383 225.5,114.5C 227.904,110.878 229.571,106.878 230.5,102.5C 230.333,101.833 230.167,101.167 230,100.5C 229.529,102.246 228.862,103.913 228,105.5C 230.221,95.2327 232.387,84.8994 234.5,74.5C 234.647,71.5278 233.313,69.6945 230.5,69C 221.422,68.1965 212.422,68.3631 203.5,69.5C 202.5,69.5 201.5,69.5 200.5,69.5C 200.36,67.8762 201.027,66.7096 202.5,66C 213.495,65.5002 224.495,65.3335 235.5,65.5C 235.5,79.8333 235.5,94.1667 235.5,108.5 Z"/></g>
<g><path style="opacity:1" fill="#2b4fa3" d="M 133.5,94.5 C 133.5,99.8333 133.5,105.167 133.5,110.5C 131.753,115.867 130.086,121.367 128.5,127C 128.911,128.144 129.244,129.311 129.5,130.5C 128.153,135.557 126.653,140.557 125,145.5C 121.244,149.546 116.744,150.546 111.5,148.5C 109.311,148.594 107.311,149.261 105.5,150.5C 104.815,148.219 104.649,145.886 105,143.5C 104.329,144.252 103.496,144.586 102.5,144.5C 103.618,141.822 103.618,139.155 102.5,136.5C 102.668,134.829 103.335,133.496 104.5,132.5C 104.193,134.446 104.193,136.113 104.5,137.5C 109.684,135.899 115.018,135.066 120.5,135C 121.931,134.535 123.097,133.701 124,132.5C 127.913,123.801 129.913,114.801 130,105.5C 131.114,101.706 132.28,98.0396 133.5,94.5 Z"/></g>
<g><path style="opacity:1" fill="#22438f" d="M 57.5,126.5 C 57.5,131.5 57.5,136.5 57.5,141.5C 54.8715,147.549 52.7049,153.882 51,160.5C 49.9328,161.943 48.7662,163.276 47.5,164.5C 42.9953,165.749 38.4953,165.749 34,164.5C 31.2505,165.457 28.7505,166.79 26.5,168.5C 26.9607,160.846 29.294,153.846 33.5,147.5C 38.503,146.334 43.503,146.334 48.5,147.5C 49.1572,144.99 50.4905,142.823 52.5,141C 53.7048,135.881 55.3715,131.048 57.5,126.5 Z"/></g>
<g><path style="opacity:1" fill="#254796" d="M 133.5,110.5 C 133.5,117.167 133.5,123.833 133.5,130.5C 131.48,134.053 129.814,137.886 128.5,142C 129.308,142.308 129.975,142.808 130.5,143.5C 128.561,148.81 126.728,154.144 125,159.5C 123.786,161.049 122.286,162.215 120.5,163C 114.988,163.066 109.654,163.9 104.5,165.5C 104.318,163.409 104.652,161.409 105.5,159.5C 105.333,159.167 105.167,158.833 105,158.5C 104.292,159.381 103.458,160.047 102.5,160.5C 102.38,158.266 102.713,156.099 103.5,154C 102.616,152.902 101.616,152.402 100.5,152.5C 102.223,150.132 102.89,147.466 102.5,144.5C 103.496,144.586 104.329,144.252 105,143.5C 104.649,145.886 104.815,148.219 105.5,150.5C 107.311,149.261 109.311,148.594 111.5,148.5C 116.744,150.546 121.244,149.546 125,145.5C 126.653,140.557 128.153,135.557 129.5,130.5C 129.244,129.311 128.911,128.144 128.5,127C 130.086,121.367 131.753,115.867 133.5,110.5 Z"/></g>
<g><path style="opacity:1" fill="#3657a4" d="M 97.5,96.5 C 98.3276,102.319 98.8276,108.319 99,114.5C 100.054,116.754 101.554,117.087 103.5,115.5C 104.466,117.396 104.799,119.396 104.5,121.5C 102.411,124.611 101.744,127.944 102.5,131.5C 103.944,130.019 104.611,130.352 104.5,132.5C 103.335,133.496 102.668,134.829 102.5,136.5C 103.618,139.155 103.618,141.822 102.5,144.5C 102.89,147.466 102.223,150.132 100.5,152.5C 101.616,152.402 102.616,152.902 103.5,154C 102.713,156.099 102.38,158.266 102.5,160.5C 101.292,161.234 99.9587,161.567 98.5,161.5C 98.815,157.629 98.4816,153.962 97.5,150.5C 97.5,132.5 97.5,114.5 97.5,96.5 Z"/></g>
<g><path style="opacity:1" fill="#2e53a7" d="M 235.5,108.5 C 235.5,114.167 235.5,119.833 235.5,125.5C 233.007,134.485 230.174,143.485 227,152.5C 225.47,153.636 224.137,154.636 223,155.5C 217.407,152.504 211.741,152.171 206,154.5C 205.667,154.167 205.333,153.833 205,153.5C 204.503,156.146 204.336,158.813 204.5,161.5C 202.927,163.836 201.594,163.836 200.5,161.5C 200.5,149.5 200.5,137.5 200.5,125.5C 201.866,128.171 203.2,130.837 204.5,133.5C 204.514,135.593 203.848,137.426 202.5,139C 205.576,137.701 208.743,137.201 212,137.5C 215.764,138.251 219.43,139.251 223,140.5C 225.333,139.5 227,137.833 228,135.5C 231.063,126.621 233.563,117.621 235.5,108.5 Z"/></g>
<g><path style="opacity:1" fill="#274a9b" d="M 235.5,125.5 C 235.5,132.167 235.5,138.833 235.5,145.5C 232.706,152.65 230.206,159.983 228,167.5C 226.622,169.213 224.955,170.547 223,171.5C 216.913,168.595 211.08,168.261 205.5,170.5C 205.346,167.397 205.013,164.397 204.5,161.5C 204.336,158.813 204.503,156.146 205,153.5C 205.333,153.833 205.667,154.167 206,154.5C 211.741,152.171 217.407,152.504 223,155.5C 224.137,154.636 225.47,153.636 227,152.5C 230.174,143.485 233.007,134.485 235.5,125.5 Z"/></g>
<g><path style="opacity:1" fill="#1d3c83" d="M 57.5,141.5 C 57.5,147.5 57.5,153.5 57.5,159.5C 55.4776,164.55 53.1442,169.55 50.5,174.5C 45.3122,176.71 39.9789,177.043 34.5,175.5C 32.1884,178.646 29.6884,181.646 27,184.5C 26.3583,180.509 25.8583,176.509 25.5,172.5C 26.4345,171.432 26.7678,170.099 26.5,168.5C 28.7505,166.79 31.2505,165.457 34,164.5C 38.4953,165.749 42.9953,165.749 47.5,164.5C 48.7662,163.276 49.9328,161.943 51,160.5C 52.7049,153.882 54.8715,147.549 57.5,141.5 Z"/></g>
<g><path style="opacity:1" fill="#1e3e86" d="M 133.5,130.5 C 133.5,140.833 133.5,151.167 133.5,161.5C 130.236,169.034 127.236,176.701 124.5,184.5C 119.571,184.795 114.571,184.962 109.5,185C 106.798,186.012 104.465,187.512 102.5,189.5C 101.217,181.242 101.884,173.242 104.5,165.5C 109.654,163.9 114.988,163.066 120.5,163C 122.286,162.215 123.786,161.049 125,159.5C 126.728,154.144 128.561,148.81 130.5,143.5C 129.975,142.808 129.308,142.308 128.5,142C 129.814,137.886 131.48,134.053 133.5,130.5 Z"/></g>
<g><path style="opacity:1" fill="#24448f" d="M 235.5,145.5 C 235.5,147.167 235.5,148.833 235.5,150.5C 235.5,154.5 235.5,158.5 235.5,162.5C 232.557,169.23 230.057,176.23 228,183.5C 226.671,184.494 225.338,185.494 224,186.5C 218.855,184.937 213.855,183.937 209,183.5C 207.915,184.293 206.748,184.96 205.5,185.5C 204.079,189.027 203.412,192.694 203.5,196.5C 202.391,196.443 201.391,196.11 200.5,195.5C 200.5,184.167 200.5,172.833 200.5,161.5C 201.594,163.836 202.927,163.836 204.5,161.5C 205.013,164.397 205.346,167.397 205.5,170.5C 211.08,168.261 216.913,168.595 223,171.5C 224.955,170.547 226.622,169.213 228,167.5C 230.206,159.983 232.706,152.65 235.5,145.5 Z"/></g>
<g><path style="opacity:1" fill="#29468a" d="M 97.5,150.5 C 98.4816,153.962 98.815,157.629 98.5,161.5C 99.9587,161.567 101.292,161.234 102.5,160.5C 103.458,160.047 104.292,159.381 105,158.5C 105.167,158.833 105.333,159.167 105.5,159.5C 104.652,161.409 104.318,163.409 104.5,165.5C 101.884,173.242 101.217,181.242 102.5,189.5C 102.416,192.682 101.083,195.015 98.5,196.5C 98.8257,188.316 98.4924,180.316 97.5,172.5C 97.5,165.167 97.5,157.833 97.5,150.5 Z"/></g>
<g><path style="opacity:1" fill="#1d3c83" d="M 235.5,162.5 C 235.5,168.833 235.5,175.167 235.5,181.5C 234.067,184.282 232.9,187.282 232,190.5C 229.945,192.555 228.279,194.888 227,197.5C 226.667,197.167 226.333,196.833 226,196.5C 225.481,197.516 224.647,198.182 223.5,198.5C 219.612,197.57 215.779,196.57 212,195.5C 209.714,198.493 207.381,201.493 205,204.5C 204.438,202.134 204.604,199.801 205.5,197.5C 205.561,195.279 204.895,194.946 203.5,196.5C 203.412,192.694 204.079,189.027 205.5,185.5C 206.748,184.96 207.915,184.293 209,183.5C 213.855,183.937 218.855,184.937 224,186.5C 225.338,185.494 226.671,184.494 228,183.5C 230.057,176.23 232.557,169.23 235.5,162.5 Z"/></g>
<g><path style="opacity:1" fill="#223975" d="M 22.5,29.5 C 22.5,38.5 22.5,47.5 22.5,56.5C 22.5,58.5 22.5,60.5 22.5,62.5C 22.5,63.8333 22.5,65.1667 22.5,66.5C 22.5,78.5 22.5,90.5 22.5,102.5C 22.5,112.833 22.5,123.167 22.5,133.5C 22.5,145.833 22.5,158.167 22.5,170.5C 24.1788,170.285 25.1788,170.952 25.5,172.5C 25.8583,176.509 26.3583,180.509 27,184.5C 29.6884,181.646 32.1884,178.646 34.5,175.5C 39.9789,177.043 45.3122,176.71 50.5,174.5C 53.1442,169.55 55.4776,164.55 57.5,159.5C 57.6664,167.507 57.4997,175.507 57,183.5C 54.8563,187.636 52.3563,191.469 49.5,195C 41.4733,195.279 33.8066,195.779 26.5,196.5C 37.1459,197.499 47.8126,197.832 58.5,197.5C 58.5,197.833 58.5,198.167 58.5,198.5C 46.8286,198.333 35.1619,198.5 23.5,199C 22.5155,208.083 22.1822,217.249 22.5,226.5C 22.5,228.167 22.5,229.833 22.5,231.5C 21.1667,164.167 21.1667,96.8333 22.5,29.5 Z"/></g>
<g><path style="opacity:1" fill="#163373" d="M 133.5,161.5 C 133.5,174.167 133.5,186.833 133.5,199.5C 132.833,199.5 132.5,199.167 132.5,198.5C 121.167,197.833 109.833,197.167 98.5,196.5C 101.083,195.015 102.416,192.682 102.5,189.5C 104.465,187.512 106.798,186.012 109.5,185C 114.571,184.962 119.571,184.795 124.5,184.5C 127.236,176.701 130.236,169.034 133.5,161.5 Z"/></g>
<g><path style="opacity:1" fill="#152d66" d="M 57.5,112.5 C 57.8333,112.5 58.1667,112.5 58.5,112.5C 58.5,140.833 58.5,169.167 58.5,197.5C 47.8126,197.832 37.1459,197.499 26.5,196.5C 33.8066,195.779 41.4733,195.279 49.5,195C 52.3563,191.469 54.8563,187.636 57,183.5C 57.4997,175.507 57.6664,167.507 57.5,159.5C 57.5,153.5 57.5,147.5 57.5,141.5C 57.5,136.5 57.5,131.5 57.5,126.5C 57.5,121.833 57.5,117.167 57.5,112.5 Z"/></g>
<g><path style="opacity:1" fill="#354d84" d="M 97.5,172.5 C 98.4924,180.316 98.8257,188.316 98.5,196.5C 109.833,197.167 121.167,197.833 132.5,198.5C 130.5,198.5 128.5,198.5 126.5,198.5C 103.833,198.5 81.1667,198.5 58.5,198.5C 58.5,198.167 58.5,197.833 58.5,197.5C 71.5,197.5 84.5,197.5 97.5,197.5C 97.5,189.167 97.5,180.833 97.5,172.5 Z"/></g>
<g><path style="opacity:1" fill="#163273" d="M 235.5,181.5 C 235.666,190.173 235.5,198.84 235,207.5C 233.719,210.502 232.219,213.335 230.5,216C 231.448,216.483 232.448,216.649 233.5,216.5C 233.146,221.532 230.48,224.699 225.5,226C 219.82,226.445 214.154,226.945 208.5,227.5C 208.906,225.891 208.906,224.557 208.5,223.5C 205.906,224.592 203.739,226.259 202,228.5C 201.802,226.618 201.302,224.952 200.5,223.5C 200.5,214.167 200.5,204.833 200.5,195.5C 201.391,196.11 202.391,196.443 203.5,196.5C 204.895,194.946 205.561,195.279 205.5,197.5C 204.604,199.801 204.438,202.134 205,204.5C 207.381,201.493 209.714,198.493 212,195.5C 215.779,196.57 219.612,197.57 223.5,198.5C 224.647,198.182 225.481,197.516 226,196.5C 226.333,196.833 226.667,197.167 227,197.5C 228.279,194.888 229.945,192.555 232,190.5C 232.9,187.282 234.067,184.282 235.5,181.5 Z"/></g>
<g><path style="opacity:1" fill="#3d61b4" d="M 58.5,198.5 C 81.1667,198.5 103.833,198.5 126.5,198.5C 126.414,199.496 126.748,200.329 127.5,201C 126.177,201.816 125.511,202.983 125.5,204.5C 121.76,205.467 117.926,206.134 114,206.5C 87.8537,204.83 61.687,204.33 35.5,205C 33.324,205.163 31.4907,205.996 30,207.5C 28.844,211.091 28.0106,214.758 27.5,218.5C 27.3259,220.861 26.9926,223.194 26.5,225.5C 25.4324,226.434 24.099,226.768 22.5,226.5C 22.1822,217.249 22.5155,208.083 23.5,199C 35.1619,198.5 46.8286,198.333 58.5,198.5 Z"/></g>
<g><path style="opacity:1" fill="#345ab0" d="M 125.5,204.5 C 124.41,208.439 122.744,212.106 120.5,215.5C 117.5,215.833 114.5,216.167 111.5,216.5C 88.335,215.462 65.1684,214.462 42,213.5C 37.7019,213.721 33.5352,214.388 29.5,215.5C 29.7148,217.179 29.0481,218.179 27.5,218.5C 28.0106,214.758 28.844,211.091 30,207.5C 31.4907,205.996 33.324,205.163 35.5,205C 61.687,204.33 87.8537,204.83 114,206.5C 117.926,206.134 121.76,205.467 125.5,204.5 Z"/></g>
<g><path style="opacity:1" fill="#2d4c94" d="M 126.5,198.5 C 128.5,198.5 130.5,198.5 132.5,198.5C 132.5,199.167 132.833,199.5 133.5,199.5C 133.821,210.748 133.487,221.915 132.5,233C 96.1667,233.667 59.8333,233.667 23.5,233C 22.944,232.617 22.6107,232.117 22.5,231.5C 22.5,229.833 22.5,228.167 22.5,226.5C 24.099,226.768 25.4324,226.434 26.5,225.5C 28.3786,225.393 28.7119,225.893 27.5,227C 42.8333,227.167 58.1667,227.333 73.5,227.5C 90.5422,227.63 107.542,227.13 124.5,226C 125.701,225.097 126.535,223.931 127,222.5C 128.919,216.159 128.919,209.825 127,203.5C 126.617,204.056 126.117,204.389 125.5,204.5C 125.511,202.983 126.177,201.816 127.5,201C 126.748,200.329 126.414,199.496 126.5,198.5 Z"/></g>
<g><path style="opacity:1" fill="#3156aa" d="M 26.5,225.5 C 26.9926,223.194 27.3259,220.861 27.5,218.5C 29.0481,218.179 29.7148,217.179 29.5,215.5C 33.5352,214.388 37.7019,213.721 42,213.5C 65.1684,214.462 88.335,215.462 111.5,216.5C 114.5,216.167 117.5,215.833 120.5,215.5C 122.744,212.106 124.41,208.439 125.5,204.5C 126.117,204.389 126.617,204.056 127,203.5C 128.919,209.825 128.919,216.159 127,222.5C 126.535,223.931 125.701,225.097 124.5,226C 107.542,227.13 90.5422,227.63 73.5,227.5C 58.1667,227.333 42.8333,227.167 27.5,227C 28.7119,225.893 28.3786,225.393 26.5,225.5 Z"/></g>
<g><path style="opacity:1" fill="#152c60" d="M 235.5,150.5 C 235.833,150.5 236.167,150.5 236.5,150.5C 236.667,176.835 236.5,203.169 236,229.5C 235.167,230.333 234.333,231.167 233.5,232C 223.167,232.667 212.833,232.667 202.5,232C 201.619,231.292 200.953,230.458 200.5,229.5C 200.5,227.5 200.5,225.5 200.5,223.5C 201.302,224.952 201.802,226.618 202,228.5C 203.739,226.259 205.906,224.592 208.5,223.5C 208.906,224.557 208.906,225.891 208.5,227.5C 214.154,226.945 219.82,226.445 225.5,226C 230.48,224.699 233.146,221.532 233.5,216.5C 232.448,216.649 231.448,216.483 230.5,216C 232.219,213.335 233.719,210.502 235,207.5C 235.5,198.84 235.666,190.173 235.5,181.5C 235.5,175.167 235.5,168.833 235.5,162.5C 235.5,158.5 235.5,154.5 235.5,150.5 Z"/></g>
</svg>
